<svg width="29" height="28" viewBox="0 0 29 28" fill="none" xmlns="http://www.w3.org/2000/svg">
<path d="M28.9098 9.87512L24.639 5.59494L28.9098 1.31477L27.595 -5.83529e-05L22 5.59494L27.595 11.1899L28.9098 9.87512Z" fill="#676A6C"/>
<path d="M22.0003 25.8751L26.2712 21.5949L22.0003 17.3148L23.3152 15.9999L28.9102 21.5949L23.3152 27.1899L22.0003 25.8751Z" fill="#676A6C"/>
<path d="M11.7395 11.1899L13.0544 9.87512L8.78351 5.59494L13.0544 1.31477L11.7395 -5.79357e-05L6.14453 5.59494L11.7395 11.1899Z" fill="#676A6C"/>
<path d="M5.595 11.1899L6.90982 9.87512L2.63897 5.59494L6.90982 1.31477L5.595 -5.79357e-05L0 5.59494L5.595 11.1899Z" fill="#676A6C"/>
<path d="M1.31516 27.1899L0.000331357 25.8751L4.27118 21.5949L0.000331357 17.3148L1.31516 15.9999L6.91016 21.5949L1.31516 27.1899Z" fill="#676A6C"/>
<path d="M7.45969 27.1899L6.14486 25.8751L10.4157 21.5949L6.14486 17.3148L7.45969 15.9999L13.0547 21.5949L7.45969 27.1899Z" fill="#676A6C"/>
</svg>
