<svg width="67" height="11" viewBox="0 0 67 11" fill="none" xmlns="http://www.w3.org/2000/svg">
<path d="M0.25 7.52734L1.01375 8.29109L3.5 5.81026L5.98625 8.29109L6.75 7.52734L3.5 4.27734L0.25 7.52734Z" fill="white"/>
<path d="M0.25 3.95801L1.01375 4.72176L3.5 2.24092L5.98625 4.72176L6.75 3.95801L3.5 0.708008L0.25 3.95801Z" fill="white"/>
<path d="M20.0137 6.34676L22.5 3.86592L24.9863 6.34676L25.75 5.58301L22.5 2.33301L19.25 5.58301L20.0137 6.34676Z" fill="white"/>
<path d="M43.9863 2.65324L41.5 5.13408L39.0137 2.65324L38.25 3.41699L41.5 6.66699L44.75 3.41699L43.9863 2.65324Z" fill="white"/>
<path d="M63.75 1.47266L62.9863 0.708906L60.5 3.18974L58.0137 0.708906L57.25 1.47266L60.5 4.72266L63.75 1.47266Z" fill="white"/>
<path d="M63.75 5.04199L62.9863 4.27824L60.5 6.75908L58.0137 4.27824L57.25 5.04199L60.5 8.29199L63.75 5.04199Z" fill="white"/>
</svg>
