<svg width="13" height="26" viewBox="0 0 13 26" fill="none" xmlns="http://www.w3.org/2000/svg">
<path d="M0 11.5556V8.88333H13V11.5556H0ZM1.08333 10.8694H2.38333V9.56944H1.08333V10.8694ZM0 2.67222V0H13V2.67222H0ZM1.08333 1.98611H2.38333V0.686111H1.08333V1.98611ZM0 7.11389V4.44167H13V7.11389H0ZM1.08333 6.42778H2.38333V5.12778H1.08333V6.42778Z" fill="#929AAC"/>
<path d="M0 25.5556V22.8833H13V25.5556H0ZM1.08333 24.8694H2.38333V23.5694H1.08333V24.8694ZM0 16.6722V14H13V16.6722H0ZM1.08333 15.9861H2.38333V14.6861H1.08333V15.9861ZM0 21.1139V18.4417H13V21.1139H0ZM1.08333 20.4278H2.38333V19.1278H1.08333V20.4278Z" fill="white"/>
</svg>
