<svg width="13" height="28" viewBox="0 0 13 28" fill="none" xmlns="http://www.w3.org/2000/svg">
<path d="M0 13V11.9167H11.5375V13H0ZM2.72639 10.8333C1.96806 10.8333 1.32407 10.5715 0.794444 10.0479C0.264815 9.52431 0 8.88333 0 8.125V0H11.9167C12.2146 0 12.4696 0.106076 12.6818 0.318229C12.8939 0.530382 13 0.785417 13 1.08333V3.97222C13 4.27014 12.8939 4.52517 12.6818 4.73733C12.4696 4.94948 12.2146 5.05556 11.9167 5.05556H10.1833V8.125C10.1833 8.88333 9.91852 9.52431 9.38889 10.0479C8.85926 10.5715 8.21528 10.8333 7.45694 10.8333H2.72639ZM2.72639 9.75H7.45655C7.89015 9.75 8.27245 9.58449 8.60347 9.25347C8.93449 8.92245 9.1 8.5463 9.1 8.125V1.08333H1.08333V8.125C1.08333 8.5463 1.25185 8.92245 1.58889 9.25347C1.92593 9.58449 2.30509 9.75 2.72639 9.75ZM10.1833 3.97222H11.9167V1.08333H10.1833V3.97222Z" fill="#929AAC"/>
<path d="M0 28V26.9167H11.5375V28H0ZM2.72639 25.8333C1.96806 25.8333 1.32407 25.5715 0.794444 25.0479C0.264815 24.5243 0 23.8833 0 23.125V15H11.9167C12.2146 15 12.4696 15.1061 12.6818 15.3182C12.8939 15.5304 13 15.7854 13 16.0833V18.9722C13 19.2701 12.8939 19.5252 12.6818 19.7373C12.4696 19.9495 12.2146 20.0556 11.9167 20.0556H10.1833V23.125C10.1833 23.8833 9.91852 24.5243 9.38889 25.0479C8.85926 25.5715 8.21528 25.8333 7.45694 25.8333H2.72639ZM2.72639 24.75H7.45655C7.89015 24.75 8.27245 24.5845 8.60347 24.2535C8.93449 23.9225 9.1 23.5463 9.1 23.125V16.0833H1.08333V23.125C1.08333 23.5463 1.25185 23.9225 1.58889 24.2535C1.92593 24.5845 2.30509 24.75 2.72639 24.75ZM10.1833 18.9722H11.9167V16.0833H10.1833V18.9722Z" fill="white"/>
</svg>
