<svg width="14" height="12" viewBox="0 0 14 12" fill="none" xmlns="http://www.w3.org/2000/svg">
<path d="M0.58 0C0.26 0 0 0.260002 0 0.580002V9.58C0 9.9 0.26 10.16 0.58 10.16H13.33C13.65 10.16 13.91 9.9 13.91 9.58V0.580002C13.91 0.260002 13.65 0 13.33 0H0.58ZM12.85 6.78999C12.85 7.10999 12.59 7.37 12.27 7.37H1.53C1.21 7.37 0.949999 7.10999 0.949999 6.78999V1.45C0.949999 1.13 1.21 0.869995 1.53 0.869995H12.27C12.59 0.869995 12.85 1.13 12.85 1.45V6.78999Z" fill="#676A6C"/>
<path d="M9.23982 10.79H4.56982V11.61H9.23982V10.79Z" fill="#676A6C"/>
</svg>
