<svg width="14" height="27" viewBox="0 0 14 27" fill="none" xmlns="http://www.w3.org/2000/svg">
<path d="M0 12.425V11.375H14V12.425H0ZM0.7 10.325V5.6H2.45V10.325H0.7ZM4.305 10.325V2.1H6.055V10.325H4.305ZM7.9275 10.325V4.2H9.6775V10.325H7.9275ZM11.55 10.325V0H13.3V10.325H11.55Z" fill="#929AAC"/>
<path d="M0 26.425V25.375H14V26.425H0ZM0.7 24.325V19.6H2.45V24.325H0.7ZM4.305 24.325V16.1H6.055V24.325H4.305ZM7.9275 24.325V18.2H9.6775V24.325H7.9275ZM11.55 24.325V14H13.3V24.325H11.55Z" fill="white"/>
</svg>
