<svg width="16" height="16" viewBox="0 0 16 16" fill="none" xmlns="http://www.w3.org/2000/svg">
<path d="M10.5981 11.4894L11.47 10.6175L8.38937 7.5175V3.62313H7.22687V7.9825L10.5981 11.4894ZM7.75 15.5C6.69083 15.5 5.68979 15.2966 4.74687 14.8897C3.80396 14.4828 2.98052 13.9274 2.27656 13.2234C1.5726 12.5195 1.01719 11.696 0.610313 10.7531C0.203437 9.81021 0 8.80917 0 7.75C0 6.69083 0.203437 5.68979 0.610313 4.74687C1.01719 3.80396 1.5726 2.98052 2.27656 2.27656C2.98052 1.5726 3.80396 1.01719 4.74687 0.610313C5.68979 0.203437 6.69083 0 7.75 0C8.80917 0 9.81021 0.203437 10.7531 0.610313C11.696 1.01719 12.5195 1.5726 13.2234 2.27656C13.9274 2.98052 14.4828 3.80396 14.8897 4.74687C15.2966 5.68979 15.5 6.69083 15.5 7.75C15.5 8.80917 15.2966 9.81021 14.8897 10.7531C14.4828 11.696 13.9274 12.5195 13.2234 13.2234C12.5195 13.9274 11.696 14.4828 10.7531 14.8897C9.81021 15.2966 8.80917 15.5 7.75 15.5ZM7.75 14.3375C9.55833 14.3375 11.1083 13.6917 12.4 12.4C13.6917 11.1083 14.3375 9.55833 14.3375 7.75C14.3375 5.94167 13.6917 4.39167 12.4 3.1C11.1083 1.80833 9.55833 1.1625 7.75 1.1625C5.94167 1.1625 4.39167 1.80833 3.1 3.1C1.80833 4.39167 1.1625 5.94167 1.1625 7.75C1.1625 9.55833 1.80833 11.1083 3.1 12.4C4.39167 13.6917 5.94167 14.3375 7.75 14.3375Z" fill="#676A6C"/>
</svg>
