<svg width="20" height="22" viewBox="0 0 20 22" fill="none" xmlns="http://www.w3.org/2000/svg">
<path d="M2.45444 21.5135C2.02909 21.5135 1.65691 21.3551 1.33789 21.0385C1.01888 20.7218 0.859375 20.3523 0.859375 19.9301V3.56901C0.859375 3.14679 1.01888 2.77734 1.33789 2.46068C1.65691 2.14401 2.02909 1.98568 2.45444 1.98568H4.18242V0.402344H5.9104V1.98568H14.9491V0.402344H16.6771V1.98568H18.4051C18.8304 1.98568 19.2026 2.14401 19.5216 2.46068C19.8406 2.77734 20.0001 3.14679 20.0001 3.56901V19.9301C20.0001 20.3523 19.8406 20.7218 19.5216 21.0385C19.2026 21.3551 18.8304 21.5135 18.4051 21.5135H2.45444ZM2.45444 19.9301H18.4051V8.5829H2.45444V19.9301ZM2.45444 6.99957H18.4051V3.56901H2.45444V6.99957ZM10.4297 13.069C10.1285 13.069 9.87591 12.9679 9.67209 12.7655C9.46828 12.5632 9.36637 12.3125 9.36637 12.0135C9.36637 11.7144 9.46828 11.4637 9.67209 11.2614C9.87591 11.0591 10.1285 10.9579 10.4297 10.9579C10.731 10.9579 10.9836 11.0591 11.1874 11.2614C11.3912 11.4637 11.4931 11.7144 11.4931 12.0135C11.4931 12.3125 11.3912 12.5632 11.1874 12.7655C10.9836 12.9679 10.731 13.069 10.4297 13.069ZM6.17625 13.069C5.87496 13.069 5.62241 12.9679 5.41859 12.7655C5.21478 12.5632 5.11287 12.3125 5.11287 12.0135C5.11287 11.7144 5.21478 11.4637 5.41859 11.2614C5.62241 11.0591 5.87496 10.9579 6.17625 10.9579C6.47754 10.9579 6.73009 11.0591 6.9339 11.2614C7.13771 11.4637 7.23962 11.7144 7.23962 12.0135C7.23962 12.3125 7.13771 12.5632 6.9339 12.7655C6.73009 12.9679 6.47754 13.069 6.17625 13.069ZM14.6832 13.069C14.382 13.069 14.1294 12.9679 13.9256 12.7655C13.7218 12.5632 13.6199 12.3125 13.6199 12.0135C13.6199 11.7144 13.7218 11.4637 13.9256 11.2614C14.1294 11.0591 14.382 10.9579 14.6832 10.9579C14.9845 10.9579 15.2371 11.0591 15.4409 11.2614C15.6447 11.4637 15.7466 11.7144 15.7466 12.0135C15.7466 12.3125 15.6447 12.5632 15.4409 12.7655C15.2371 12.9679 14.9845 13.069 14.6832 13.069ZM10.4297 17.2912C10.1285 17.2912 9.87591 17.1901 9.67209 16.9878C9.46828 16.7854 9.36637 16.5348 9.36637 16.2357C9.36637 15.9366 9.46828 15.6859 9.67209 15.4836C9.87591 15.2813 10.1285 15.1801 10.4297 15.1801C10.731 15.1801 10.9836 15.2813 11.1874 15.4836C11.3912 15.6859 11.4931 15.9366 11.4931 16.2357C11.4931 16.5348 11.3912 16.7854 11.1874 16.9878C10.9836 17.1901 10.731 17.2912 10.4297 17.2912ZM6.17625 17.2912C5.87496 17.2912 5.62241 17.1901 5.41859 16.9878C5.21478 16.7854 5.11287 16.5348 5.11287 16.2357C5.11287 15.9366 5.21478 15.6859 5.41859 15.4836C5.62241 15.2813 5.87496 15.1801 6.17625 15.1801C6.47754 15.1801 6.73009 15.2813 6.9339 15.4836C7.13771 15.6859 7.23962 15.9366 7.23962 16.2357C7.23962 16.5348 7.13771 16.7854 6.9339 16.9878C6.73009 17.1901 6.47754 17.2912 6.17625 17.2912ZM14.6832 17.2912C14.382 17.2912 14.1294 17.1901 13.9256 16.9878C13.7218 16.7854 13.6199 16.5348 13.6199 16.2357C13.6199 15.9366 13.7218 15.6859 13.9256 15.4836C14.1294 15.2813 14.382 15.1801 14.6832 15.1801C14.9845 15.1801 15.2371 15.2813 15.4409 15.4836C15.6447 15.6859 15.7466 15.9366 15.7466 16.2357C15.7466 16.5348 15.6447 16.7854 15.4409 16.9878C15.2371 17.1901 14.9845 17.2912 14.6832 17.2912Z" fill="#676A6C"/>
</svg>
