<svg width="12" height="12" viewBox="0 0 12 12" fill="none" xmlns="http://www.w3.org/2000/svg">
<path d="M6 11.3799C8.8995 11.3799 11.25 9.02938 11.25 6.12988C11.25 3.23039 8.8995 0.879883 6 0.879883C3.10051 0.879883 0.75 3.23039 0.75 6.12988C0.75 9.02938 3.10051 11.3799 6 11.3799Z" fill="white"/>
<path d="M5.42673 11.7499V6.45737H6.31369V11.7499H5.42673ZM5.87509 5.36573C5.5242 5.36573 5.28053 5.1318 5.28053 4.77117C5.28053 4.43004 5.5242 4.19611 5.87509 4.19611C6.22597 4.19611 6.46964 4.43004 6.46964 4.77117C6.46964 5.1318 6.22597 5.36573 5.87509 5.36573Z" fill="#1C4E81"/>
</svg>
