<svg width="42" height="30" viewBox="0 0 42 30" fill="none" xmlns="http://www.w3.org/2000/svg">
<path fill-rule="evenodd" clip-rule="evenodd" d="M37.4432 0.0912349C37.2722 0.143326 36.9373 0.284718 36.6991 0.405396C36.4607 0.526199 31.366 5.51594 25.3775 11.4937C19.3889 17.4714 14.4617 22.3874 14.428 22.4181C14.3944 22.4488 12.2617 20.3725 9.68878 17.8043C4.56298 12.6879 4.49427 12.6337 3.11806 12.6289C1.71457 12.6239 0.561859 13.4663 0.170925 14.7828C-0.0600134 15.5605 -0.058401 15.7721 0.184692 16.6035C0.373958 17.2508 0.6204 17.5164 6.47907 23.3891C10.503 27.4225 12.748 29.5842 13.0808 29.7455C13.8333 30.1104 15.0144 30.0797 15.8284 29.6741C16.3335 29.4223 18.9392 26.8705 28.6447 17.1224C37.2748 8.45464 40.8935 4.7404 41.0553 4.38456C41.5742 3.2419 41.2113 1.5937 40.256 0.755029C39.5499 0.135017 38.2824 -0.164013 37.4432 0.0912349Z" fill="white"/>
</svg>
