<svg width="13" height="13" viewBox="0 0 13 13" fill="none" xmlns="http://www.w3.org/2000/svg">
<path d="M1.06412 11.9359H1.84447L9.70123 4.07913L8.92087 3.29877L1.06412 11.1555V11.9359ZM11.9536 3.31651L9.68349 1.04638L10.4284 0.301501C10.6294 0.1005 10.8777 0 11.1733 0C11.4688 0 11.7171 0.1005 11.9181 0.301501L12.6985 1.08186C12.8995 1.28286 13 1.53115 13 1.82674C13 2.12233 12.8995 2.37062 12.6985 2.57162L11.9536 3.31651ZM11.2087 4.06139L2.27012 13H0V10.7299L8.93861 1.79127L11.2087 4.06139ZM9.31105 3.68895L8.92087 3.29877L9.70123 4.07913L9.31105 3.68895Z" fill="#676A6C"/>
</svg>
