<svg width="13" height="28" viewBox="0 0 13 28" fill="none" xmlns="http://www.w3.org/2000/svg">
<path d="M5.005 13L4.68 10.9525C4.47417 10.8767 4.2575 10.7737 4.03 10.6437C3.8025 10.5137 3.60208 10.3783 3.42875 10.2375L1.51125 11.115L0 8.45L1.755 7.16625C1.73333 7.06875 1.71979 6.95771 1.71438 6.83312C1.70896 6.70854 1.70625 6.5975 1.70625 6.5C1.70625 6.4025 1.70896 6.29146 1.71438 6.16687C1.71979 6.04229 1.73333 5.93125 1.755 5.83375L0 4.55L1.51125 1.885L3.42875 2.7625C3.60208 2.62167 3.8025 2.48625 4.03 2.35625C4.2575 2.22625 4.47417 2.12875 4.68 2.06375L5.005 0H7.995L8.32 2.0475C8.52583 2.12333 8.74521 2.22354 8.97812 2.34812C9.21104 2.47271 9.40875 2.61083 9.57125 2.7625L11.4888 1.885L13 4.55L11.245 5.80125C11.2667 5.90958 11.2802 6.02604 11.2856 6.15063C11.291 6.27521 11.2937 6.39167 11.2937 6.5C11.2937 6.60833 11.291 6.72208 11.2856 6.84125C11.2802 6.96042 11.2667 7.07417 11.245 7.1825L13 8.45L11.4888 11.115L9.57125 10.2375C9.39792 10.3783 9.20021 10.5165 8.97812 10.6519C8.75604 10.7873 8.53667 10.8875 8.32 10.9525L7.995 13H5.005ZM6.5 8.6125C7.085 8.6125 7.58333 8.40667 7.995 7.995C8.40667 7.58333 8.6125 7.085 8.6125 6.5C8.6125 5.915 8.40667 5.41667 7.995 5.005C7.58333 4.59333 7.085 4.3875 6.5 4.3875C5.915 4.3875 5.41667 4.59333 5.005 5.005C4.59333 5.41667 4.3875 5.915 4.3875 6.5C4.3875 7.085 4.59333 7.58333 5.005 7.995C5.41667 8.40667 5.915 8.6125 6.5 8.6125ZM6.5 7.6375C6.18583 7.6375 5.91771 7.52646 5.69562 7.30437C5.47354 7.08229 5.3625 6.81417 5.3625 6.5C5.3625 6.18583 5.47354 5.91771 5.69562 5.69562C5.91771 5.47354 6.18583 5.3625 6.5 5.3625C6.81417 5.3625 7.08229 5.47354 7.30437 5.69562C7.52646 5.91771 7.6375 6.18583 7.6375 6.5C7.6375 6.81417 7.52646 7.08229 7.30437 7.30437C7.08229 7.52646 6.81417 7.6375 6.5 7.6375ZM5.785 12.025H7.215L7.4425 10.205C7.8 10.1183 8.13854 9.98292 8.45812 9.79875C8.77771 9.61458 9.0675 9.3925 9.3275 9.1325L11.05 9.88L11.7 8.71L10.1725 7.58875C10.2158 7.40458 10.251 7.22312 10.2781 7.04437C10.3052 6.86562 10.3187 6.68417 10.3187 6.5C10.3187 6.31583 10.3079 6.13438 10.2862 5.95563C10.2646 5.77688 10.2267 5.59542 10.1725 5.41125L11.7 4.29L11.05 3.12L9.3275 3.8675C9.07833 3.58583 8.79667 3.35021 8.4825 3.16062C8.16833 2.97104 7.82167 2.84917 7.4425 2.795L7.215 0.975H5.785L5.5575 2.795C5.18917 2.87083 4.84521 3.00083 4.52562 3.185C4.20604 3.36917 3.92167 3.59667 3.6725 3.8675L1.95 3.12L1.3 4.29L2.8275 5.41125C2.78417 5.59542 2.74896 5.77688 2.72187 5.95563C2.69479 6.13438 2.68125 6.31583 2.68125 6.5C2.68125 6.68417 2.69479 6.86562 2.72187 7.04437C2.74896 7.22312 2.78417 7.40458 2.8275 7.58875L1.3 8.71L1.95 9.88L3.6725 9.1325C3.9325 9.3925 4.22229 9.61458 4.54187 9.79875C4.86146 9.98292 5.2 10.1183 5.5575 10.205L5.785 12.025Z" fill="#929AAC"/>
<path d="M5.005 28L4.68 25.9525C4.47417 25.8767 4.2575 25.7737 4.03 25.6437C3.8025 25.5137 3.60208 25.3783 3.42875 25.2375L1.51125 26.115L0 23.45L1.755 22.1663C1.73333 22.0688 1.71979 21.9577 1.71438 21.8331C1.70896 21.7085 1.70625 21.5975 1.70625 21.5C1.70625 21.4025 1.70896 21.2915 1.71438 21.1669C1.71979 21.0423 1.73333 20.9313 1.755 20.8338L0 19.55L1.51125 16.885L3.42875 17.7625C3.60208 17.6217 3.8025 17.4862 4.03 17.3562C4.2575 17.2262 4.47417 17.1287 4.68 17.0637L5.005 15H7.995L8.32 17.0475C8.52583 17.1233 8.74521 17.2235 8.97812 17.3481C9.21104 17.4727 9.40875 17.6108 9.57125 17.7625L11.4888 16.885L13 19.55L11.245 20.8012C11.2667 20.9096 11.2802 21.026 11.2856 21.1506C11.291 21.2752 11.2937 21.3917 11.2937 21.5C11.2937 21.6083 11.291 21.7221 11.2856 21.8412C11.2802 21.9604 11.2667 22.0742 11.245 22.1825L13 23.45L11.4888 26.115L9.57125 25.2375C9.39792 25.3783 9.20021 25.5165 8.97812 25.6519C8.75604 25.7873 8.53667 25.8875 8.32 25.9525L7.995 28H5.005ZM6.5 23.6125C7.085 23.6125 7.58333 23.4067 7.995 22.995C8.40667 22.5833 8.6125 22.085 8.6125 21.5C8.6125 20.915 8.40667 20.4167 7.995 20.005C7.58333 19.5933 7.085 19.3875 6.5 19.3875C5.915 19.3875 5.41667 19.5933 5.005 20.005C4.59333 20.4167 4.3875 20.915 4.3875 21.5C4.3875 22.085 4.59333 22.5833 5.005 22.995C5.41667 23.4067 5.915 23.6125 6.5 23.6125ZM6.5 22.6375C6.18583 22.6375 5.91771 22.5265 5.69562 22.3044C5.47354 22.0823 5.3625 21.8142 5.3625 21.5C5.3625 21.1858 5.47354 20.9177 5.69562 20.6956C5.91771 20.4735 6.18583 20.3625 6.5 20.3625C6.81417 20.3625 7.08229 20.4735 7.30437 20.6956C7.52646 20.9177 7.6375 21.1858 7.6375 21.5C7.6375 21.8142 7.52646 22.0823 7.30437 22.3044C7.08229 22.5265 6.81417 22.6375 6.5 22.6375ZM5.785 27.025H7.215L7.4425 25.205C7.8 25.1183 8.13854 24.9829 8.45812 24.7987C8.77771 24.6146 9.0675 24.3925 9.3275 24.1325L11.05 24.88L11.7 23.71L10.1725 22.5887C10.2158 22.4046 10.251 22.2231 10.2781 22.0444C10.3052 21.8656 10.3187 21.6842 10.3187 21.5C10.3187 21.3158 10.3079 21.1344 10.2862 20.9556C10.2646 20.7769 10.2267 20.5954 10.1725 20.4112L11.7 19.29L11.05 18.12L9.3275 18.8675C9.07833 18.5858 8.79667 18.3502 8.4825 18.1606C8.16833 17.971 7.82167 17.8492 7.4425 17.795L7.215 15.975H5.785L5.5575 17.795C5.18917 17.8708 4.84521 18.0008 4.52562 18.185C4.20604 18.3692 3.92167 18.5967 3.6725 18.8675L1.95 18.12L1.3 19.29L2.8275 20.4112C2.78417 20.5954 2.74896 20.7769 2.72187 20.9556C2.69479 21.1344 2.68125 21.3158 2.68125 21.5C2.68125 21.6842 2.69479 21.8656 2.72187 22.0444C2.74896 22.2231 2.78417 22.4046 2.8275 22.5887L1.3 23.71L1.95 24.88L3.6725 24.1325C3.9325 24.3925 4.22229 24.6146 4.54187 24.7987C4.86146 24.9829 5.2 25.1183 5.5575 25.205L5.785 27.025Z" fill="white"/>
</svg>
