<svg width="30" height="25" viewBox="0 0 30 25" fill="none" xmlns="http://www.w3.org/2000/svg">
<path fill-rule="evenodd" clip-rule="evenodd" d="M17.9774 0.0718504C18.2459 0.174924 29.3555 10.9926 29.7428 11.5281C30.0857 12.0023 30.0857 12.8311 29.7428 13.3053C29.5955 13.5089 26.9207 16.1746 23.7988 19.2291L18.1224 24.7826H17.3758C16.7333 24.7826 16.5607 24.7152 16.1374 24.2985C15.7138 23.8815 15.6456 23.7122 15.6456 23.0777V22.3411L19.7789 18.2702L23.9121 14.1993L12.4479 14.1596L0.983567 14.1198L0.491784 13.6357C0.0686006 13.2189 1.06898e-06 13.0491 1.06898e-06 12.4167C1.06898e-06 11.7844 0.0686006 11.6145 0.491784 11.1977L0.983567 10.7136L12.4479 10.6738L23.9121 10.6341L19.7789 6.56328L15.6456 2.49231V1.75569C15.6456 1.12984 15.7156 0.950347 16.1109 0.561007C16.5749 0.104283 17.4585 -0.127337 17.9774 0.0718504Z" fill="white"/>
</svg>
