<svg width="12" height="12" viewBox="0 0 12 12" fill="none" xmlns="http://www.w3.org/2000/svg">
<path d="M0 11.9995V10.9995H10.65V11.9995H0ZM2.51667 9.99951C1.81667 9.99951 1.22222 9.75785 0.733333 9.27451C0.244444 8.79118 0 8.19951 0 7.49951V-0.000488281H11C11.275 -0.000488281 11.5104 0.0974284 11.7063 0.293262C11.9021 0.489095 12 0.724512 12 0.999512V3.66618C12 3.94118 11.9021 4.1766 11.7063 4.37243C11.5104 4.56826 11.275 4.66618 11 4.66618H9.4V7.49951C9.4 8.19951 9.15556 8.79118 8.66667 9.27451C8.17778 9.75785 7.58333 9.99951 6.88333 9.99951H2.51667ZM2.51667 8.99951H6.88297C7.28321 8.99951 7.63611 8.84673 7.94167 8.54118C8.24722 8.23562 8.4 7.8884 8.4 7.49951V0.999512H1V7.49951C1 7.8884 1.15556 8.23562 1.46667 8.54118C1.77778 8.84673 2.12778 8.99951 2.51667 8.99951ZM9.4 3.66618H11V0.999512H9.4V3.66618Z" fill="#4D4B4B"/>
</svg>
