<svg width="70" height="70" viewBox="0 0 70 70" fill="none" xmlns="http://www.w3.org/2000/svg">
<path d="M34.9984 52.5C35.8161 52.5 36.5021 52.2234 37.0563 51.6703C37.6104 51.1171 37.8875 50.4317 37.8875 49.6141C37.8875 48.7964 37.6109 48.1104 37.0578 47.5563C36.5047 47.0021 35.8192 46.725 35.0016 46.725C34.1839 46.725 33.4979 47.0016 32.9438 47.5547C32.3896 48.1079 32.1125 48.7933 32.1125 49.6109C32.1125 50.4286 32.3891 51.1146 32.9422 51.6688C33.4953 52.2229 34.1808 52.5 34.9984 52.5ZM32.6375 39.1125H37.8875V16.975H32.6375V39.1125ZM35.0233 70C30.1971 70 25.6617 69.0812 21.417 67.2438C17.1723 65.4062 13.4604 62.8979 10.2812 59.7188C7.10208 56.5396 4.59375 52.8255 2.75625 48.5764C0.91875 44.3274 0 39.7874 0 34.9562C0 30.1251 0.91875 25.5851 2.75625 21.3361C4.59375 17.087 7.10208 13.3875 10.2812 10.2375C13.4604 7.0875 17.1745 4.59375 21.4236 2.75625C25.6726 0.91875 30.2126 0 35.0438 0C39.8749 0 44.4149 0.91875 48.6639 2.75625C52.913 4.59375 56.6125 7.0875 59.7625 10.2375C62.9125 13.3875 65.4062 17.0917 67.2438 21.35C69.0812 25.6083 70 30.1506 70 34.9767C70 39.8029 69.0812 44.3383 67.2438 48.583C65.4062 52.8277 62.9125 56.5342 59.7625 59.7026C56.6125 62.8711 52.9083 65.3794 48.65 67.2276C44.3917 69.0759 39.8494 70 35.0233 70ZM35.0438 64.75C43.2979 64.75 50.3125 61.8479 56.0875 56.0438C61.8625 50.2396 64.75 43.2104 64.75 34.9562C64.75 26.7021 61.868 19.6875 56.1039 13.9125C50.3399 8.1375 43.3052 5.25 35 5.25C26.775 5.25 19.7604 8.13202 13.9563 13.8961C8.15208 19.6601 5.25 26.6948 5.25 35C5.25 43.225 8.15208 50.2396 13.9563 56.0438C19.7604 61.8479 26.7896 64.75 35.0438 64.75Z" fill="#F4A000"/>
</svg>
