<svg width="13" height="13" viewBox="0 0 13 13" fill="none" xmlns="http://www.w3.org/2000/svg">
<path d="M6.9875 8.1575H7.9625V6.0125H10.1075V5.0375H7.9625V2.8925H6.9875V5.0375H4.8425V6.0125H6.9875V8.1575ZM2.925 11.05C2.665 11.05 2.4375 10.9525 2.2425 10.7575C2.0475 10.5625 1.95 10.335 1.95 10.075V0.975C1.95 0.715 2.0475 0.4875 2.2425 0.2925C2.4375 0.0975 2.665 0 2.925 0H12.025C12.285 0 12.5125 0.0975 12.7075 0.2925C12.9025 0.4875 13 0.715 13 0.975V10.075C13 10.335 12.9025 10.5625 12.7075 10.7575C12.5125 10.9525 12.285 11.05 12.025 11.05H2.925ZM2.925 10.075H12.025V0.975H2.925V10.075ZM0.975 13C0.715 13 0.4875 12.9025 0.2925 12.7075C0.0975 12.5125 0 12.285 0 12.025V1.95H0.975V12.025H11.05V13H0.975Z" fill="#676A6C"/>
</svg>
