<svg width="14" height="28" viewBox="0 0 14 28" fill="none" xmlns="http://www.w3.org/2000/svg">
<path d="M4.375 12.6V11.2H1.05C0.77 11.2 0.525 11.095 0.315 10.885C0.105 10.675 0 10.43 0 10.15V1.05C0 0.77 0.105 0.525 0.315 0.315C0.525 0.105 0.77 0 1.05 0H12.95C13.23 0 13.475 0.105 13.685 0.315C13.895 0.525 14 0.77 14 1.05V10.15C14 10.43 13.895 10.675 13.685 10.885C13.475 11.095 13.23 11.2 12.95 11.2H9.625V12.6H4.375ZM1.05 10.15H12.95V1.05H1.05V10.15Z" fill="#929AAC"/>
<path d="M4.375 12.6V11.2H1.05C0.77 11.2 0.525 11.095 0.315 10.885C0.105 10.675 0 10.43 0 10.15V1.05C0 0.77 0.105 0.525 0.315 0.315C0.525 0.105 0.77 0 1.05 0H12.95C13.23 0 13.475 0.105 13.685 0.315C13.895 0.525 14 0.77 14 1.05V10.15C14 10.43 13.895 10.675 13.685 10.885C13.475 11.095 13.23 11.2 12.95 11.2H9.625V12.6H4.375ZM1.05 10.15H12.95V1.05H1.05V10.15Z" fill="#929AAC"/>
<path d="M4.375 27.6V26.2H1.05C0.77 26.2 0.525 26.095 0.315 25.885C0.105 25.675 0 25.43 0 25.15V16.05C0 15.77 0.105 15.525 0.315 15.315C0.525 15.105 0.77 15 1.05 15H12.95C13.23 15 13.475 15.105 13.685 15.315C13.895 15.525 14 15.77 14 16.05V25.15C14 25.43 13.895 25.675 13.685 25.885C13.475 26.095 13.23 26.2 12.95 26.2H9.625V27.6H4.375ZM1.05 25.15H12.95V16.05H1.05V25.15Z" fill="white"/>
</svg>
