<svg width="10" height="12" viewBox="0 0 10 12" fill="none" xmlns="http://www.w3.org/2000/svg">
<path d="M7.85982 3.15991H1.16982C1.16982 3.15991 0.849838 3.21991 0.909838 3.51991L1.43984 10.5299C1.43984 10.5299 1.59982 11.0099 2.07982 11.0899H6.93984C7.41984 11.0099 7.57982 10.5299 7.57982 10.5299L8.10982 3.51991C8.16982 3.20991 7.84984 3.15991 7.84984 3.15991H7.85982Z" fill="#676A6C"/>
<path d="M8.81 1.27C8.81 1.27 8.73 1.05999 8.41 1.00999H6.25998V0.559998C6.15998 0.0599976 5.66 0 5.66 0H3.38998C3.38998 0 2.88998 0.0599976 2.78998 0.559998V1.00999H0.669983C0.359983 1.05999 0.269989 1.27 0.269989 1.27L0 2.11C0.02 2.48 0.309998 2.39999 0.309998 2.39999H8.76999C8.76999 2.39999 9.05999 2.48 9.07999 2.11L8.81 1.27Z" fill="#676A6C"/>
</svg>
