<svg width="10" height="12" viewBox="0 0 10 12" fill="none" xmlns="http://www.w3.org/2000/svg">
<path d="M8.38768 3.15991H1.69768C1.69768 3.15991 1.37767 3.2199 1.43767 3.5199L1.96767 10.5299C1.96767 10.5299 2.12765 11.0099 2.60765 11.0899H7.46767C7.94767 11.0099 8.10765 10.5299 8.10765 10.5299L8.63768 3.5199C8.69768 3.2099 8.37767 3.15991 8.37767 3.15991H8.38768Z" fill="#B2B2B2"/>
<path d="M9.3476 1.26999C9.3476 1.26999 9.2676 1.05998 8.9476 1.00998H6.79758V0.559998C6.69758 0.0599976 6.1976 0 6.1976 0H3.92758C3.92758 0 3.42758 0.0599976 3.32758 0.559998V1.00998H1.20758C0.897581 1.05998 0.807587 1.26999 0.807587 1.26999L0.537598 2.10999C0.557598 2.47999 0.847595 2.39999 0.847595 2.39999H9.30759C9.30759 2.39999 9.59758 2.47999 9.61758 2.10999L9.3476 1.26999Z" fill="#B2B2B2"/>
</svg>
