<svg width="13" height="26" viewBox="0 0 13 26" fill="none" xmlns="http://www.w3.org/2000/svg">
<path d="M6.5 11.8939C5.75253 11.8939 5.04798 11.7525 4.38636 11.4697C3.72475 11.1869 3.14899 10.8005 2.65909 10.3106C2.16919 9.82071 1.7803 9.24495 1.49242 8.58333C1.20455 7.92172 1.06061 7.21347 1.06061 6.45859C1.06061 5.70371 1.20455 4.99664 1.49242 4.33738C1.7803 3.67812 2.16919 3.10101 2.65909 2.60606C3.14899 2.11111 3.72475 1.72222 4.38636 1.43939C5.04798 1.15657 5.75253 1.01515 6.5 1.01515C7.24747 1.01515 7.95202 1.15657 8.61364 1.43939C9.27525 1.72222 9.85354 2.11111 10.3485 2.60606C10.8434 3.10101 11.2323 3.67812 11.5152 4.33738C11.798 4.99664 11.9394 5.70371 11.9394 6.45859C11.9394 7.21347 11.798 7.92172 11.5152 8.58333C11.2323 9.24495 10.8434 9.82071 10.3485 10.3106C9.85354 10.8005 9.27525 11.1869 8.61364 11.4697C7.95202 11.7525 7.24747 11.8939 6.5 11.8939ZM8.33333 8.92424L8.9697 8.28788L7 6.31818V3.43939H6.09091V6.68182L8.33333 8.92424ZM2.48485 0L3.12121 0.636364L0.636364 3.0303L0 2.39394L2.48485 0ZM10.5152 0L13 2.39394L12.3636 3.0303L9.87879 0.636364L10.5152 0ZM6.50065 10.9848C7.76284 10.9848 8.83333 10.5452 9.71212 9.66602C10.5909 8.78679 11.0303 7.71609 11.0303 6.45389C11.0303 5.1917 10.5907 4.12121 9.71147 3.24242C8.83225 2.36364 7.76154 1.92424 6.49935 1.92424C5.23716 1.92424 4.16667 2.36385 3.28788 3.24308C2.40909 4.1223 1.9697 5.193 1.9697 6.4552C1.9697 7.71739 2.40931 8.78788 3.28853 9.66667C4.16775 10.5455 5.23846 10.9848 6.50065 10.9848Z" fill="#929AAC"/>
<path d="M6.5 25.8939C5.75253 25.8939 5.04798 25.7525 4.38636 25.4697C3.72475 25.1869 3.14899 24.8005 2.65909 24.3106C2.16919 23.8207 1.7803 23.2449 1.49242 22.5833C1.20455 21.9217 1.06061 21.2135 1.06061 20.4586C1.06061 19.7037 1.20455 18.9966 1.49242 18.3374C1.7803 17.6781 2.16919 17.101 2.65909 16.6061C3.14899 16.1111 3.72475 15.7222 4.38636 15.4394C5.04798 15.1566 5.75253 15.0152 6.5 15.0152C7.24747 15.0152 7.95202 15.1566 8.61364 15.4394C9.27525 15.7222 9.85354 16.1111 10.3485 16.6061C10.8434 17.101 11.2323 17.6781 11.5152 18.3374C11.798 18.9966 11.9394 19.7037 11.9394 20.4586C11.9394 21.2135 11.798 21.9217 11.5152 22.5833C11.2323 23.2449 10.8434 23.8207 10.3485 24.3106C9.85354 24.8005 9.27525 25.1869 8.61364 25.4697C7.95202 25.7525 7.24747 25.8939 6.5 25.8939ZM8.33333 22.9242L8.9697 22.2879L7 20.3182V17.4394H6.09091V20.6818L8.33333 22.9242ZM2.48485 14L3.12121 14.6364L0.636364 17.0303L0 16.3939L2.48485 14ZM10.5152 14L13 16.3939L12.3636 17.0303L9.87879 14.6364L10.5152 14ZM6.50065 24.9848C7.76284 24.9848 8.83333 24.5452 9.71212 23.666C10.5909 22.7868 11.0303 21.7161 11.0303 20.4539C11.0303 19.1917 10.5907 18.1212 9.71147 17.2424C8.83225 16.3636 7.76154 15.9242 6.49935 15.9242C5.23716 15.9242 4.16667 16.3639 3.28788 17.2431C2.40909 18.1223 1.9697 19.193 1.9697 20.4552C1.9697 21.7174 2.40931 22.7879 3.28853 23.6667C4.16775 24.5455 5.23846 24.9848 6.50065 24.9848Z" fill="white"/>
</svg>
