<svg width="13" height="12" viewBox="0 0 13 12" fill="none" xmlns="http://www.w3.org/2000/svg">
<path d="M1.32 4.41962H0.59C0.264152 4.41962 0 4.68377 0 5.00961V10.5696C0 10.8955 0.264152 11.1596 0.59 11.1596H1.32C1.64585 11.1596 1.91 10.8955 1.91 10.5696V5.00961C1.91 4.68377 1.64585 4.41962 1.32 4.41962Z" fill="#676A6C"/>
<path d="M3.90984 8.04962H3.17984C2.854 8.04962 2.58984 8.31377 2.58984 8.63962V10.5696C2.58984 10.8955 2.854 11.1596 3.17984 11.1596H3.90984C4.23569 11.1596 4.49984 10.8955 4.49984 10.5696V8.63962C4.49984 8.31377 4.23569 8.04962 3.90984 8.04962Z" fill="#676A6C"/>
<path d="M6.61004 0.609619H5.88004C5.55419 0.609619 5.29004 0.873767 5.29004 1.19962V10.5696C5.29004 10.8955 5.55419 11.1596 5.88004 11.1596H6.61004C6.93589 11.1596 7.20004 10.8955 7.20004 10.5696V1.19962C7.20004 0.873767 6.93589 0.609619 6.61004 0.609619Z" fill="#676A6C"/>
<path d="M9.19012 5.12961H8.46012C8.13427 5.12961 7.87012 5.39376 7.87012 5.7196V10.5796C7.87012 10.9055 8.13427 11.1696 8.46012 11.1696H9.19012C9.51596 11.1696 9.78012 10.9055 9.78012 10.5796V5.7196C9.78012 5.39376 9.51596 5.12961 9.19012 5.12961Z" fill="#676A6C"/>
<path d="M11.7702 2.0596H11.0402C10.7143 2.0596 10.4502 2.32375 10.4502 2.6496V10.5696C10.4502 10.8955 10.7143 11.1596 11.0402 11.1596H11.7702C12.096 11.1596 12.3602 10.8955 12.3602 10.5696V2.6496C12.3602 2.32375 12.096 2.0596 11.7702 2.0596Z" fill="#676A6C"/>
</svg>
