<svg width="11" height="11" viewBox="0 0 11 11" fill="none" xmlns="http://www.w3.org/2000/svg">
<path d="M9.29464 5.9475C9.31631 5.77417 9.33255 5.60083 9.33255 5.41667C9.33255 5.2325 9.31631 5.05917 9.29464 4.88583L10.4376 3.99208C10.5405 3.91083 10.5676 3.76458 10.5026 3.64542L9.41922 1.77125C9.35422 1.65208 9.20797 1.60875 9.08881 1.65208L7.74005 2.19375C7.45839 1.97708 7.15506 1.79833 6.82464 1.66292L6.6188 0.2275C6.60255 0.0975 6.4888 0 6.35339 0H4.18672C4.0513 0 3.93755 0.0975 3.9213 0.2275L3.71547 1.66292C3.38505 1.79833 3.08172 1.9825 2.80005 2.19375L1.4513 1.65208C1.32672 1.60333 1.18589 1.65208 1.12089 1.77125L0.0375546 3.64542C-0.0328621 3.76458 -0.000361997 3.91083 0.102555 3.99208L1.24547 4.88583C1.2238 5.05917 1.20755 5.23792 1.20755 5.41667C1.20755 5.59542 1.2238 5.77417 1.24547 5.9475L0.102555 6.84125C-0.000361997 6.9225 -0.0274454 7.06875 0.0375546 7.18792L1.12089 9.06208C1.18589 9.18125 1.33214 9.22458 1.4513 9.18125L2.80005 8.63958C3.08172 8.85625 3.38505 9.035 3.71547 9.17042L3.9213 10.6058C3.93755 10.7358 4.0513 10.8333 4.18672 10.8333H6.35339C6.4888 10.8333 6.60255 10.7358 6.6188 10.6058L6.82464 9.17042C7.15506 9.035 7.45839 8.85083 7.74005 8.63958L9.08881 9.18125C9.21339 9.23 9.35422 9.18125 9.41922 9.06208L10.5026 7.18792C10.5676 7.06875 10.5405 6.9225 10.4376 6.84125L9.29464 5.9475ZM5.27005 7.3125C4.22464 7.3125 3.37422 6.46208 3.37422 5.41667C3.37422 4.37125 4.22464 3.52083 5.27005 3.52083C6.31547 3.52083 7.16589 4.37125 7.16589 5.41667C7.16589 6.46208 6.31547 7.3125 5.27005 7.3125Z" fill="#B2B2B2"/>
</svg>
