<svg width="16" height="20" viewBox="0 0 16 20" fill="none" xmlns="http://www.w3.org/2000/svg">
<path d="M8 13.2C8.63333 13.2 9.15417 12.9542 9.5625 12.4625C9.97083 11.9708 10.175 11.4 10.175 10.75C10.175 10.2 9.95833 9.74583 9.525 9.3875C9.09167 9.02917 8.58333 8.85 8 8.85C7.41667 8.85 6.90833 9.02917 6.475 9.3875C6.04167 9.74583 5.825 10.2 5.825 10.75C5.825 11.4 6.02917 11.9708 6.4375 12.4625C6.84583 12.9542 7.36667 13.2 8 13.2ZM1.5 20C1.1 20 0.75 19.85 0.45 19.55C0.15 19.25 0 18.9 0 18.5V1.5C0 1.1 0.15 0.75 0.45 0.45C0.75 0.15 1.1 0 1.5 0H10.025L16 5.975V18.5C16 18.9 15.85 19.25 15.55 19.55C15.25 19.85 14.9 20 14.5 20H1.5ZM1.5 18.5H14.4L10.05 14.15C9.71667 14.35 9.3875 14.4917 9.0625 14.575C8.7375 14.6583 8.38333 14.7 8 14.7C6.96667 14.7 6.09583 14.3458 5.3875 13.6375C4.67917 12.9292 4.325 12.0583 4.325 11.025C4.325 9.99167 4.67917 9.12083 5.3875 8.4125C6.09583 7.70417 6.96667 7.35 8 7.35C9.03333 7.35 9.90417 7.70417 10.6125 8.4125C11.3208 9.12083 11.675 9.99167 11.675 11.025C11.675 11.4083 11.6208 11.775 11.5125 12.125C11.4042 12.475 11.2417 12.7833 11.025 13.05L14.5 16.525V6.65L9.35 1.5H1.5V18.5Z" fill="#676A6C"/>
</svg>
