<svg width="13" height="13" viewBox="0 0 13 13" fill="none" xmlns="http://www.w3.org/2000/svg">
<path d="M1.08333 13C0.794445 13 0.541667 12.8917 0.325 12.675C0.108333 12.4583 0 12.2056 0 11.9167V1.08333C0 0.794445 0.108333 0.541667 0.325 0.325C0.541667 0.108333 0.794445 0 1.08333 0H6.12083V1.08333H1.08333V11.9167H11.9167V6.87917H13V11.9167C13 12.2056 12.8917 12.4583 12.675 12.675C12.4583 12.8917 12.2056 13 11.9167 13H1.08333ZM4.73056 9.04583L3.97222 8.26944L11.1583 1.08333H7.20417V0H13V5.79583H11.9167V1.85972L4.73056 9.04583Z" fill="#676A6C"/>
</svg>
