<svg width="16" height="16" viewBox="0 0 16 16" fill="none" xmlns="http://www.w3.org/2000/svg">
<path d="M15.2188 3.81087V14.29C15.2188 14.6234 15.0938 14.915 14.8438 15.165C14.5938 15.415 14.3021 15.54 13.9688 15.54H1.46875C1.13542 15.54 0.84375 15.415 0.59375 15.165C0.34375 14.915 0.21875 14.6234 0.21875 14.29V1.79004C0.21875 1.45671 0.34375 1.16504 0.59375 0.915039C0.84375 0.665039 1.13542 0.540039 1.46875 0.540039H11.9479L15.2188 3.81087ZM13.9688 4.37337L11.3854 1.79004H1.46875V14.29H13.9688V4.37337ZM7.71385 12.9359C8.31434 12.9359 8.82639 12.7257 9.25 12.3054C9.67361 11.885 9.88542 11.3746 9.88542 10.7741C9.88542 10.1736 9.67524 9.66157 9.2549 9.23796C8.83456 8.81434 8.32415 8.60254 7.72365 8.60254C7.12316 8.60254 6.61111 8.81271 6.1875 9.23306C5.76389 9.65339 5.55208 10.1638 5.55208 10.7643C5.55208 11.3648 5.76226 11.8768 6.1826 12.3005C6.60294 12.7241 7.11335 12.9359 7.71385 12.9359ZM2.57292 5.87337H10.0312V2.89421H2.57292V5.87337ZM1.46875 4.37337V14.29V1.79004V4.37337Z" fill="#1C4E81"/>
</svg>
