<svg width="420" height="43" viewBox="0 0 420 43" fill="none" xmlns="http://www.w3.org/2000/svg">
<path d="M1.8095 32.3401C4.14121 33.5667 7.88166 34.7932 11.6707 34.7932C15.7633 34.7932 17.9129 33.1052 17.9129 30.4698C17.9129 28.0774 16.0427 26.6201 11.3185 24.9806C4.78484 22.6489 0.461491 19.0299 0.461491 13.2492C0.461491 6.53336 6.12073 1.45703 15.3504 1.45703C19.8438 1.45703 23.0621 2.33139 25.3938 3.43653L23.4143 10.5531C21.8962 9.80018 19.0423 8.68289 15.2411 8.68289C11.44 8.68289 9.52116 10.4924 9.52116 12.4841C9.52116 14.998 11.6829 16.1031 16.8199 18.0826C23.7665 20.6451 26.9726 24.2641 26.9726 29.8748C26.9726 36.4692 21.957 42.0798 11.1485 42.0798C6.65509 42.0798 2.22241 40.8533 0 39.6267L1.8095 32.3279V32.3401Z" fill="#1A1E6A"/>
<path d="M38.5222 29.9484C38.8137 33.6888 42.4327 35.4376 46.5861 35.4376C49.6221 35.4376 52.0753 35.0247 54.4678 34.2111L55.6336 40.2225C52.719 41.4491 49.1485 42.032 45.2988 42.032C35.6076 42.032 30.0576 36.4335 30.0576 27.4345C30.0576 20.1965 34.6117 12.1934 44.4729 12.1934C53.7026 12.1934 57.2002 19.3706 57.2002 26.4387C57.2002 27.9567 57.0302 29.3047 56.9087 29.997L38.5222 29.9362V29.9484ZM48.9663 23.8762C48.9663 21.7752 48.0312 18.0955 43.9993 18.0955C40.2103 18.0955 38.6923 21.5445 38.4494 23.8762H48.9542H48.9663Z" fill="#1A1E6A"/>
<path d="M84.755 34.5626C84.755 37.2465 84.8764 39.8697 85.2165 41.4485H77.2255L76.7033 38.5946H76.5333C74.6631 40.8655 71.7484 42.0921 68.3601 42.0921C62.5794 42.0921 59.1426 37.8902 59.1426 33.3361C59.1426 25.928 65.7977 22.4183 75.9018 22.4183V22.0661C75.9018 20.5481 75.076 18.3864 70.704 18.3864C67.7894 18.3864 64.6925 19.3822 62.8223 20.4873L61.1829 14.8281C63.1624 13.7229 67.085 12.2656 72.2706 12.2656C81.7796 12.2656 84.7672 17.8641 84.7672 24.58V34.5626H84.755ZM76.169 27.9683C71.4934 27.9683 67.8744 29.0734 67.8744 32.4617C67.8744 34.7327 69.3924 35.8499 71.3719 35.8499C73.5336 35.8499 75.4039 34.3926 75.9868 32.5831C76.1082 32.1216 76.1568 31.5873 76.1568 31.065V27.9683H76.169Z" fill="#1A1E6A"/>
<path d="M90.3538 22.2973C90.3538 18.0953 90.2931 15.3507 90.123 12.8976H97.7133L98.0655 18.2046H98.2962C99.7535 14.0027 103.203 12.2539 105.996 12.2539C106.822 12.2539 107.222 12.3146 107.866 12.4239V20.7671C107.113 20.6457 106.409 20.5364 105.413 20.5364C102.146 20.5364 99.9235 22.2244 99.3406 25.0297C99.2192 25.6127 99.1706 26.2563 99.1706 27.0093V41.4246H90.2931L90.3538 22.273V22.2973Z" fill="#1A1E6A"/>
<path d="M131.985 40.7445C130.406 41.4975 127.431 42.0926 124.043 42.0926C114.813 42.0926 108.923 36.4333 108.923 27.4343C108.923 19.0912 114.643 12.2539 125.269 12.2539C127.601 12.2539 130.175 12.6668 132.046 13.359L130.649 19.9534C129.593 19.4919 128.026 19.079 125.682 19.079C121.006 19.079 117.97 22.4066 118.031 27.07C118.031 32.3285 121.529 35.1338 125.852 35.1338C127.953 35.1338 129.593 34.7817 130.928 34.1987L131.973 40.7324L131.985 40.7445Z" fill="#1A1E6A"/>
<path d="M135.373 0H144.238V16.3463H144.36C145.295 15.059 146.461 14.0753 147.87 13.3709C149.205 12.6666 150.845 12.2658 152.472 12.2658C158.132 12.2658 162.455 16.1763 162.455 24.823V41.4608H153.59V25.7581C153.59 22.0177 152.302 19.4552 148.975 19.4552C146.643 19.4552 145.174 20.9733 144.542 22.6128C144.311 23.135 144.251 23.9001 144.251 24.5437V41.4729H135.385V0.0242753L135.373 0Z" fill="#1A1E6A"/>
<path d="M178.68 2.10156H202.677V9.40029H187.557V18.3871H201.681V25.6252H187.557V41.4492H178.68V2.10156Z" fill="#F4A000"/>
<path d="M219.314 42.0921C210.959 42.0921 204.547 36.6029 204.547 27.3853C204.547 18.1678 210.619 12.2656 219.837 12.2656C228.532 12.2656 234.373 18.2771 234.373 26.9117C234.373 37.3073 226.953 42.0921 219.363 42.0921H219.302H219.314ZM219.484 35.7285C222.994 35.7285 225.144 32.2795 225.144 27.1424C225.144 22.9405 223.504 18.6171 219.484 18.6171C215.465 18.6171 213.655 22.9405 213.655 27.2032C213.655 32.0487 215.695 35.7285 219.436 35.7285H219.497H219.484Z" fill="#F4A000"/>
<path d="M238.406 22.2973C238.406 18.0953 238.345 15.3507 238.175 12.8976H245.765L246.117 18.2046H246.348C247.805 14.0027 251.254 12.2539 254.047 12.2539C254.873 12.2539 255.274 12.3146 255.918 12.4239V20.7671C255.165 20.6457 254.46 20.5364 253.465 20.5364C250.198 20.5364 247.975 22.2244 247.392 25.0297C247.283 25.6127 247.222 26.2563 247.222 27.0093V41.4246H238.345L238.406 22.273V22.2973Z" fill="#F4A000"/>
<path d="M258.942 22.0058C258.942 18.4475 258.82 15.4722 258.711 12.8976H266.24L266.593 16.808H266.775C268.001 14.9378 270.564 12.2539 275.409 12.2539C279.15 12.2539 282.004 14.1849 283.23 17.1602H283.352C284.457 15.6422 285.684 14.4763 287.08 13.6627C288.659 12.7883 290.408 12.2661 292.509 12.2661C297.998 12.2661 302.139 16.1158 302.139 24.6412V41.4489H293.492V25.977C293.492 21.8358 292.156 19.4434 289.29 19.4434C287.189 19.4434 285.793 20.84 285.149 22.5402C284.967 23.1838 284.858 24.0582 284.858 24.7626V41.4611H276.211V25.467C276.211 21.9087 274.924 19.4555 272.07 19.4555C269.787 19.4555 268.451 21.2043 267.928 22.613C267.637 23.3174 267.576 24.1311 267.576 24.884V41.4611H258.93V22.018L258.942 22.0058Z" fill="#F4A000"/>
<path d="M334.54 32.2788C334.54 36.0193 334.649 39.0554 334.771 41.4479H327.059L326.658 37.4159H326.476C325.371 39.1647 322.687 42.0915 317.55 42.0915C311.709 42.0915 307.507 38.4725 307.507 29.6557V12.9086H316.384V28.2591C316.384 32.4003 317.72 34.9142 320.878 34.9142C323.331 34.9142 324.788 33.2261 325.31 31.8174C325.541 31.2952 325.663 30.6515 325.663 29.8864V12.8965H334.54V32.2788Z" fill="#F4A000"/>
<path d="M340.151 0H349.029V41.4487H340.151V0Z" fill="#F4A000"/>
<path d="M378.381 34.5626C378.381 37.2465 378.49 39.8697 378.842 41.4485H370.851L370.329 38.5946H370.147C368.277 40.8655 365.362 42.0921 361.974 42.0921C356.193 42.0921 352.744 37.8902 352.744 33.3361C352.744 25.928 359.399 22.4183 369.503 22.4183V22.0661C369.503 20.5481 368.69 18.3864 364.306 18.3864C361.391 18.3864 358.294 19.3822 356.424 20.4873L354.797 14.8281C356.776 13.7229 360.687 12.2656 365.884 12.2656C375.405 12.2656 378.381 17.8641 378.381 24.58V34.5626ZM369.795 27.9683C365.131 27.9683 361.5 29.0734 361.5 32.4617C361.5 34.7327 363.018 35.8499 365.01 35.8499C367.172 35.8499 369.042 34.3926 369.625 32.5831C369.734 32.1216 369.795 31.5873 369.795 31.065V27.9683Z" fill="#F4A000"/>
<path d="M397.411 23.1719V29.0619H382.121V23.1719H397.411Z" fill="#F4A000"/>
<path d="M411.426 11.3797H411.305L404.067 14.8287L402.609 8.17363L412.701 3.49805H420V41.437H411.414V11.3797H411.426Z" fill="#F4A000"/>
</svg>
