<svg width="176" height="19" viewBox="0 0 176 19" fill="none" xmlns="http://www.w3.org/2000/svg">
<path d="M1.23998 14.25C2.20998 14.76 3.76998 15.27 5.34998 15.27C7.04998 15.27 7.94998 14.57 7.94998 13.47C7.94998 12.47 7.16998 11.87 5.19998 11.18C2.47998 10.21 0.679981 8.7 0.679981 6.29C0.679981 3.49 3.03998 1.38 6.87998 1.38C8.74998 1.38 10.09 1.74 11.06 2.21L10.23 5.18C9.59998 4.86 8.40998 4.4 6.82998 4.4C5.24998 4.4 4.44998 5.15 4.44998 5.98C4.44998 7.03 5.34998 7.49 7.48998 8.32C10.38 9.39 11.72 10.9 11.72 13.23C11.72 15.98 9.62998 18.31 5.12998 18.31C3.25998 18.31 1.40998 17.8 0.47998 17.29L1.22998 14.25H1.23998Z" fill="#D8D8D8"/>
<path d="M16.54 13.25C16.66 14.81 18.17 15.54 19.9 15.54C21.16 15.54 22.19 15.37 23.18 15.03L23.67 17.54C22.45 18.05 20.97 18.29 19.36 18.29C15.32 18.29 13.01 15.96 13.01 12.21C13.01 9.19004 14.91 5.86005 19.02 5.86005C22.86 5.86005 24.32 8.85004 24.32 11.8C24.32 12.43 24.25 12.99 24.2 13.28L16.54 13.26V13.25ZM20.89 10.72C20.89 9.84005 20.5 8.31005 18.82 8.31005C17.24 8.31005 16.61 9.74005 16.51 10.72H20.89Z" fill="#D8D8D8"/>
<path d="M35.81 15.17C35.81 16.29 35.86 17.38 36 18.04H32.67L32.45 16.85H32.38C31.6 17.8 30.38 18.31 28.97 18.31C26.56 18.31 25.13 16.56 25.13 14.66C25.13 11.57 27.9 10.11 32.11 10.11V9.96C32.11 9.33 31.77 8.43 29.94 8.43C28.72 8.43 27.43 8.84001 26.66 9.31001L25.98 6.95C26.81 6.49 28.44 5.88 30.6 5.88C34.56 5.88 35.81 8.22001 35.81 11.01V15.17V15.17ZM32.23 12.42C30.28 12.42 28.78 12.88 28.78 14.29C28.78 15.24 29.41 15.7 30.24 15.7C31.14 15.7 31.92 15.09 32.16 14.34C32.21 14.15 32.23 13.93 32.23 13.71V12.42V12.42Z" fill="#D8D8D8"/>
<path d="M38.14 10.06C38.14 8.31 38.12 7.16999 38.04 6.13999H41.2L41.35 8.34999H41.45C42.06 6.59999 43.49 5.87 44.66 5.87C45 5.87 45.17 5.88999 45.44 5.93999V9.42C45.12 9.37 44.83 9.31999 44.42 9.31999C43.06 9.31999 42.13 10.03 41.89 11.19C41.84 11.43 41.82 11.7 41.82 12.02V18.03H38.12L38.14 10.05V10.06Z" fill="#D8D8D8"/>
<path d="M55.49 17.75C54.83 18.07 53.59 18.31 52.18 18.31C48.34 18.31 45.88 15.95 45.88 12.2C45.88 8.72 48.26 5.88 52.69 5.88C53.66 5.88 54.73 6.05 55.51 6.34L54.93 9.09C54.49 8.9 53.84 8.73 52.86 8.73C50.91 8.73 49.65 10.12 49.67 12.06C49.67 14.25 51.13 15.42 52.93 15.42C53.81 15.42 54.49 15.27 55.05 15.03L55.49 17.75V17.75Z" fill="#D8D8D8"/>
<path d="M56.9 0.77002H60.6V7.58002H60.65C61.04 7.05002 61.53 6.63002 62.11 6.34002C62.67 6.05002 63.35 5.88002 64.03 5.88002C66.39 5.88002 68.19 7.51002 68.19 11.11V18.04H64.49V11.5C64.49 9.94002 63.95 8.87002 62.57 8.87002C61.6 8.87002 60.99 9.50002 60.72 10.18C60.62 10.4 60.6 10.72 60.6 10.98V18.03H56.9V0.77002V0.77002Z" fill="#D8D8D8"/>
<path d="M74.95 1.65002H84.95V4.69003H78.65V8.44003H84.54V11.46H78.65V18.05H74.95V1.65002Z" fill="#D8D8D8"/>
<path d="M91.88 18.31C88.4 18.31 85.73 16.02 85.73 12.18C85.73 8.34 88.26 5.88 92.1 5.88C95.73 5.88 98.16 8.39001 98.16 11.99C98.16 16.32 95.07 18.32 91.91 18.32H91.89L91.88 18.31ZM91.95 15.66C93.41 15.66 94.31 14.23 94.31 12.08C94.31 10.33 93.63 8.53 91.95 8.53C90.27 8.53 89.52 10.33 89.52 12.11C89.52 14.13 90.37 15.66 91.93 15.66H91.95V15.66Z" fill="#D8D8D8"/>
<path d="M99.83 10.06C99.83 8.31 99.81 7.16999 99.73 6.13999H102.89L103.04 8.34999H103.14C103.75 6.59999 105.18 5.87 106.35 5.87C106.69 5.87 106.86 5.88999 107.13 5.93999V9.42C106.81 9.37 106.52 9.31999 106.11 9.31999C104.75 9.31999 103.83 10.03 103.58 11.19C103.53 11.43 103.51 11.7 103.51 12.02V18.03H99.81L99.83 10.05V10.06Z" fill="#D8D8D8"/>
<path d="M108.4 9.94C108.4 8.46 108.35 7.22 108.3 6.15H111.44L111.59 7.78H111.66C112.17 7 113.24 5.88 115.26 5.88C116.82 5.88 118.01 6.68 118.52 7.92H118.57C119.03 7.29 119.54 6.8 120.13 6.46C120.79 6.1 121.52 5.88 122.39 5.88C124.68 5.88 126.4 7.49 126.4 11.04V18.04H122.8V11.59C122.8 9.86 122.24 8.87 121.05 8.87C120.17 8.87 119.59 9.45 119.32 10.16C119.25 10.43 119.2 10.79 119.2 11.08V18.04H115.6V11.38C115.6 9.9 115.06 8.87 113.87 8.87C112.92 8.87 112.36 9.6 112.14 10.18C112.02 10.47 111.99 10.81 111.99 11.13V18.04H108.39V9.94H108.4Z" fill="#D8D8D8"/>
<path d="M139.9 14.22C139.9 15.78 139.95 17.04 140 18.04H136.79L136.62 16.36H136.55C136.09 17.09 134.97 18.31 132.83 18.31C130.4 18.31 128.65 16.8 128.65 13.13V6.15002H132.35V12.55C132.35 14.28 132.91 15.32 134.22 15.32C135.24 15.32 135.85 14.61 136.07 14.03C136.17 13.81 136.22 13.54 136.22 13.23V6.15002H139.92V14.23L139.9 14.22Z" fill="#D8D8D8"/>
<path d="M142.23 0.77002H145.93V18.04H142.23V0.77002Z" fill="#D8D8D8"/>
<path d="M158.17 15.17C158.17 16.29 158.22 17.38 158.36 18.04H155.03L154.81 16.85H154.74C153.96 17.8 152.75 18.31 151.33 18.31C148.92 18.31 147.49 16.56 147.49 14.66C147.49 11.57 150.26 10.11 154.47 10.11V9.96C154.47 9.33 154.13 8.43 152.3 8.43C151.08 8.43 149.79 8.84001 149.02 9.31001L148.34 6.95C149.17 6.49 150.8 5.88 152.96 5.88C156.93 5.88 158.17 8.22001 158.17 11.01V15.17V15.17ZM154.59 12.42C152.65 12.42 151.14 12.88 151.14 14.29C151.14 15.24 151.77 15.7 152.6 15.7C153.5 15.7 154.28 15.09 154.52 14.34C154.57 14.15 154.59 13.93 154.59 13.71V12.42V12.42Z" fill="#D8D8D8"/>
<path d="M166.09 10.43V12.89H159.72V10.43H166.09Z" fill="#D8D8D8"/>
<path d="M171.93 5.51003H171.88L168.86 6.94003L168.25 4.17003L172.46 2.22003H175.5V18.03H171.92V5.50003L171.93 5.51003Z" fill="#D8D8D8"/>
</svg>
